<svg width="192" height="192" viewBox="0 0 192 192" fill="none" xmlns="http://www.w3.org/2000/svg">
  <rect width="192" height="192" fill="#61DAFB"/>
  <path d="M96 24C57.6 24 26.4 55.2 26.4 93.6C26.4 122.4 43.2 147.6 69.6 159.6C74.4 161.3 75.6 158.9 75.6 156.8C75.6 154.9 75.6 148.4 75.6 139.2C52.8 144 50.4 133.2 50.4 133.2C46.8 124.8 40.8 122.4 40.8 122.4C32.4 116.4 42 116.4 42 116.4C52.8 117.6 57.6 128.4 57.6 128.4C66 146.4 84 140.4 76.8 135.6C75.6 129.6 72 127.2 69.6 125.7C61.2 120.9 52.8 123.6 52.8 123.6C46.8 124.8 44.4 130.8 44.4 133.2C44.4 135.6 44.4 138 45.6 139.2C45.6 139.2 52.8 170.4 75.6 164.4C75.6 172.8 75.6 178.8 75.6 180C75.6 182.1 76.8 184.5 81.6 182.4C111.6 193.2 148.8 172.8 148.8 93.6C148.8 55.2 134.4 24 96 24Z" fill="#20232A"/>
  <path d="M69.6 123.6C69.6 123.6 67.2 122.4 60 128.4L57.6 130.8C57.6 130.8 63.6 132 69.6 136.8L69.6 123.6Z" fill="#20232A"/>
  <path d="M75.6 156C75.6 156 73.2 156.9 69.6 154.8L66 152.4C66 152.4 73.2 153.6 76.8 156L75.6 156Z" fill="#20232A"/>
</svg>
